<mxfile host="app.diagrams.net" modified="2023-06-12T02:18:21.070Z" agent="Mozilla/5.0 (Windows NT 10.0; Win64; x64) AppleWebKit/537.36 (KHTML, like Gecko) Chrome/114.0.0.0 Safari/537.36 Edg/114.0.1823.43" etag="tFRT1X-aB4HByUxkxXNP" version="21.3.8" type="github">
  <diagram name="第 1 页" id="45-b-GxXgrfIsT5xssLL">
    <mxGraphModel dx="1586" dy="868" grid="1" gridSize="10" guides="1" tooltips="1" connect="1" arrows="1" fold="1" page="1" pageScale="1" pageWidth="827" pageHeight="1169" math="0" shadow="0">
      <root>
        <mxCell id="0" />
        <mxCell id="1" parent="0" />
      </root>
    </mxGraphModel>
  </diagram>
</mxfile>
